<svg xmlns="http://www.w3.org/2000/svg" width="334.588" height="43.98" viewBox="0 0 334.588 43.98">
  <g id="Group_906" data-name="Group 906" transform="translate(-75.375 -23)">
    <g id="Group_1" data-name="Group 1" transform="translate(75.375 23)">
      <path id="Path_1" data-name="Path 1" d="M19.8,43.98a11.736,11.736,0,0,1-3.627-2.872,13.814,13.814,0,0,1-2.469-4.282,14.87,14.87,0,0,1-.907-5.239c0-11.033,9.169-17.028,8.161-28.212a5.781,5.781,0,0,0-.3-1.864A5.586,5.586,0,0,0,19.8,0,11.736,11.736,0,0,1,23.43,2.872,13.814,13.814,0,0,1,25.9,7.154a16.1,16.1,0,0,1,.907,5.239c0,9.521-8.665,16.524-8.665,26.751a7.537,7.537,0,0,0,.453,2.62A7.189,7.189,0,0,0,19.8,43.98" transform="translate(-6.352)" fill="#fff"/>
      <path id="Path_2" data-name="Path 2" d="M75.769,40.018V33.066H69.32v6.952H66.6V24.3h2.72v6.549h6.448V24.3h2.72V40.018Z" transform="translate(-33.048 -12.058)" fill="#fff"/>
      <path id="Path_3" data-name="Path 3" d="M95.82,38.855c.151,2.317,1.36,2.872,3.174,2.872a34.164,34.164,0,0,0,4.282-.3l.2,1.914a30.776,30.776,0,0,1-5.189.453c-4.03,0-5.088-2.62-5.088-6.146,0-4.332,1.36-6.146,5.34-6.146,4.332,0,5.239,2.267,5.239,5.844a5.475,5.475,0,0,1-.05.907c-1.36.252-4.232.5-5.894.6Zm2.368-1.864c.907-.05,2.267-.151,3.073-.252,0-.151.05-.4.05-.554,0-1.814-.655-2.821-2.67-2.821-2.519,0-2.872,1.612-2.872,3.778Z" transform="translate(-46.248 -15.631)" fill="#fff"/>
      <path id="Path_4" data-name="Path 4" d="M117,39.915a3.373,3.373,0,0,1,3.224-3.778,37.153,37.153,0,0,1,4.232-.3c0-1.662-.705-2.519-2.569-2.519a36.251,36.251,0,0,0-4.181.3l-.2-1.864a29.445,29.445,0,0,1,4.635-.453c2.62,0,4.836.705,4.836,3.778v5.29c0,.806-.05,1.461-.1,2.217a10.957,10.957,0,0,1-5.34,1.058c-3.275,0-4.534-1.259-4.534-3.728m7.456-2.418a17.6,17.6,0,0,0-3.275.3c-1.259.3-1.713.655-1.713,2.065,0,1.511.856,1.864,2.368,1.864a6.157,6.157,0,0,0,2.519-.4c.05-.5.05-1.058.05-1.612V37.5Z" transform="translate(-58.058 -15.532)" fill="#fff"/>
      <path id="Path_5" data-name="Path 5" d="M140.9,22.5h2.569V35.9a4.046,4.046,0,0,0,.856,2.67l-2.217,1.058A5.006,5.006,0,0,1,140.9,36Z" transform="translate(-69.918 -11.165)" fill="#fff"/>
      <path id="Path_6" data-name="Path 6" d="M156.9,40.265a11.014,11.014,0,0,1-1.814.151c-2.418,0-3.476-1.058-3.476-3.275V30.19H149.6V28.275h2.015V25.3l2.569-.4v3.375h2.469V30.19h-2.469V36.94c0,1.159.5,1.511,1.612,1.511a5.476,5.476,0,0,0,.907-.05Z" transform="translate(-74.235 -12.356)" fill="#fff"/>
      <path id="Path_7" data-name="Path 7" d="M177.927,39.075h-2.569V31.67c0-1.914-.353-2.72-2.821-2.72a5.694,5.694,0,0,0-2.267.453v9.622H167.7V22.4h2.569v4.937a10.525,10.525,0,0,1,2.972-.453c4.232,0,4.685,1.965,4.685,4.484Z" transform="translate(-83.217 -11.115)" fill="#fff"/>
      <path id="Path_8" data-name="Path 8" d="M203.526,26.519a19.969,19.969,0,0,0-3.073-.252c-4.232,0-4.232,2.418-4.232,5.743s.05,5.743,4.232,5.743a19.97,19.97,0,0,0,3.073-.252l.252,2.065a16.52,16.52,0,0,1-3.929.453c-5.189,0-6.448-2.418-6.448-8.01S194.659,24,199.848,24a16.52,16.52,0,0,1,3.929.453Z" transform="translate(-95.969 -11.909)" fill="#fff"/>
      <path id="Path_9" data-name="Path 9" d="M217.2,39.915a3.373,3.373,0,0,1,3.224-3.778,37.153,37.153,0,0,1,4.232-.3c0-1.662-.705-2.519-2.569-2.519a36.251,36.251,0,0,0-4.181.3l-.2-1.864a29.446,29.446,0,0,1,4.635-.453c2.62,0,4.836.705,4.836,3.778v5.29c0,.806-.05,1.461-.1,2.217a10.957,10.957,0,0,1-5.34,1.058c-3.224,0-4.534-1.259-4.534-3.728m7.506-2.418a17.6,17.6,0,0,0-3.275.3c-1.259.3-1.713.655-1.713,2.065,0,1.511.856,1.864,2.368,1.864a6.157,6.157,0,0,0,2.519-.4c.05-.5.05-1.058.05-1.612V37.5Z" transform="translate(-107.78 -15.532)" fill="#fff"/>
      <path id="Path_10" data-name="Path 10" d="M246.8,40.265a11.014,11.014,0,0,1-1.814.151c-2.418,0-3.476-1.058-3.476-3.275V30.19H239.5V28.275h2.015V25.3l2.569-.4v3.375h2.469V30.19h-2.469V36.94c0,1.159.5,1.511,1.612,1.511a5.475,5.475,0,0,0,.907-.05Z" transform="translate(-118.845 -12.356)" fill="#fff"/>
      <path id="Path_11" data-name="Path 11" d="M257.6,39.915a3.373,3.373,0,0,1,3.224-3.778,37.152,37.152,0,0,1,4.232-.3c0-1.662-.705-2.519-2.569-2.519a36.251,36.251,0,0,0-4.181.3l-.2-1.864a29.445,29.445,0,0,1,4.635-.453c2.62,0,4.836.705,4.836,3.778v5.29c0,.806-.05,1.461-.1,2.217a10.957,10.957,0,0,1-5.34,1.058c-3.224,0-4.534-1.259-4.534-3.728m7.506-2.418a17.6,17.6,0,0,0-3.275.3c-1.259.3-1.713.655-1.713,2.065,0,1.511.856,1.864,2.368,1.864a6.157,6.157,0,0,0,2.519-.4c.05-.5.05-1.058.05-1.612V37.5Z" transform="translate(-127.827 -15.532)" fill="#fff"/>
      <path id="Path_12" data-name="Path 12" d="M280.7,22.5h2.569V35.9a4.046,4.046,0,0,0,.856,2.67l-2.217,1.058A5.006,5.006,0,0,1,280.7,36Z" transform="translate(-139.29 -11.165)" fill="#fff"/>
      <path id="Path_13" data-name="Path 13" d="M295.295,39.71l2.569-8.01h2.569l-5.542,16.373h-2.62l1.864-5.189L289.3,31.7h2.72Z" transform="translate(-143.557 -15.73)" fill="#fff"/>
      <path id="Path_14" data-name="Path 14" d="M318.147,40.166c0-1.36-1.209-1.511-2.368-1.814-1.914-.6-3.778-1.058-3.778-3.678s1.864-3.375,4.232-3.375a19.25,19.25,0,0,1,4.282.453l-.252,1.864a19.167,19.167,0,0,0-2.972-.3c-.957,0-2.72,0-2.72,1.209,0,1.259,1.461,1.461,2.469,1.814,2.066.705,3.678,1.058,3.678,3.728,0,2.771-2.065,3.526-4.685,3.526a18.873,18.873,0,0,1-4.131-.453l.252-1.914a22.657,22.657,0,0,0,3.174.353c.957,0,2.821.05,2.821-1.411" transform="translate(-154.772 -15.532)" fill="#fff"/>
      <path id="Path_15" data-name="Path 15" d="M339.5,40.265a11.013,11.013,0,0,1-1.814.151c-2.418,0-3.476-1.058-3.476-3.275V30.19H332.2V28.275h2.015V25.3l2.569-.4v3.375h2.469V30.19h-2.469V36.94c0,1.159.5,1.511,1.612,1.511a5.475,5.475,0,0,0,.907-.05Z" transform="translate(-164.845 -12.356)" fill="#fff"/>
      <path id="Path_16" data-name="Path 16" d="M38.485,57.121a7.406,7.406,0,0,1-2.418-1.914A9.534,9.534,0,0,1,34.4,52.335a9.968,9.968,0,0,1-.6-3.526c0-7.406,6.8-11.587,5.743-21.108a13.958,13.958,0,0,1,3.023,4.836,9.968,9.968,0,0,1,.6,3.526c0,6.4-5.844,11.083-5.844,17.934a5.189,5.189,0,0,0,.3,1.763,5.593,5.593,0,0,0,.856,1.36" transform="translate(-16.772 -13.745)" fill="#fff"/>
      <path id="Path_17" data-name="Path 17" d="M4.685,32.171a7.406,7.406,0,0,1-2.418-1.914A9.534,9.534,0,0,1,.6,27.385,9.968,9.968,0,0,1,0,23.859C0,16.453,6.8,12.272,5.743,2.7A13.958,13.958,0,0,1,8.766,7.536a9.968,9.968,0,0,1,.6,3.526c0,6.4-5.844,11.083-5.844,17.934a5.189,5.189,0,0,0,.3,1.763,6.582,6.582,0,0,0,.856,1.411" transform="translate(0 -1.34)" fill="#fff"/>
      <path id="Path_18" data-name="Path 18" d="M66.5,64.4c0-.3.05-.4.353-.4.252,0,.353.1.353.4s-.05.4-.353.4-.353-.1-.353-.4m.05,1.209H67.1v4.03H66.55Z" transform="translate(-32.999 -31.758)" fill="#fff"/>
      <path id="Path_19" data-name="Path 19" d="M69.953,72.188a12.352,12.352,0,0,0,1.36.1c.856,0,1.108-.252,1.108-.957v-.353a4.2,4.2,0,0,1-1.108.151c-1.209,0-1.713-.5-1.713-2.015,0-1.562.554-2.015,1.814-2.015a3.855,3.855,0,0,1,1.511.3v4.131c0,1.008-.705,1.209-1.562,1.209a7.822,7.822,0,0,1-1.562-.151Zm.252-3.023c0,1.108.2,1.562,1.31,1.562a2.933,2.933,0,0,0,.957-.151V67.755a2.946,2.946,0,0,0-.957-.2c-1.058,0-1.31.554-1.31,1.612" transform="translate(-34.537 -33.297)" fill="#fff"/>
      <path id="Path_20" data-name="Path 20" d="M79.254,71.231H78.7V67.453a4.641,4.641,0,0,1,1.814-.353c1.36,0,1.511.655,1.511,1.461v2.62h-.554V68.662c0-.756-.151-1.108-1.159-1.108a3.622,3.622,0,0,0-1.108.2v3.476Z" transform="translate(-39.053 -33.297)" fill="#fff"/>
      <path id="Path_21" data-name="Path 21" d="M87.6,64.4c0-.3.05-.4.353-.4.252,0,.353.1.353.4s-.05.4-.353.4c-.252,0-.353-.1-.353-.4m.05,1.209H88.2v4.03H87.65Z" transform="translate(-43.469 -31.758)" fill="#fff"/>
      <path id="Path_22" data-name="Path 22" d="M91.81,65v1.159h.907v.453H91.81v2.519c0,.554.2.705.705.705h.2l.05.4c-.151,0-.3.05-.453.05-.756,0-1.058-.3-1.058-1.058v-2.62H90.5v-.453h.756V65.1Z" transform="translate(-44.908 -32.254)" fill="#fff"/>
      <path id="Path_23" data-name="Path 23" d="M96.2,69.266c0-1.461.453-2.065,1.763-2.065,1.36,0,1.763.705,1.763,1.814v.4c-.453.1-1.411.151-2.015.2h-.957c.05.806.3,1.259,1.36,1.259a11.589,11.589,0,0,0,1.411-.1l.05.453a11.879,11.879,0,0,1-1.713.151c-1.31-.05-1.662-.957-1.662-2.116m1.612-.151a13.327,13.327,0,0,0,1.36-.1v-.3c0-.705-.3-1.108-1.209-1.108-1.008,0-1.209.5-1.209,1.562Z" transform="translate(-47.737 -33.346)" fill="#fff"/>
      <path id="Path_24" data-name="Path 24" d="M109.3,69.266c0-1.511.453-2.065,1.763-2.065s1.763.6,1.763,2.065c0,1.511-.453,2.065-1.763,2.065s-1.763-.554-1.763-2.065m2.972,0c0-1.209-.3-1.612-1.209-1.612s-1.209.353-1.209,1.612.3,1.612,1.209,1.612,1.209-.4,1.209-1.612" transform="translate(-54.237 -33.346)" fill="#fff"/>
      <path id="Path_25" data-name="Path 25" d="M118.4,67.15h.554v2.519c0,.756.151,1.108,1.159,1.108a3.622,3.622,0,0,0,1.108-.2V67.1h.554v3.778a4.641,4.641,0,0,1-1.814.353c-1.36,0-1.511-.655-1.511-1.461V67.15Z" transform="translate(-58.753 -33.297)" fill="#fff"/>
      <path id="Path_26" data-name="Path 26" d="M128.11,65v1.159h.907v.453h-.907v2.519c0,.554.2.705.705.705h.2l.05.4c-.151,0-.3.05-.453.05-.756,0-1.058-.3-1.058-1.058v-2.62H126.8v-.453h.756V65.1Z" transform="translate(-62.921 -32.254)" fill="#fff"/>
      <path id="Path_27" data-name="Path 27" d="M135.27,71.23a6.288,6.288,0,0,1-1.058.1c-1.36,0-1.612-.957-1.612-2.116,0-1.31.3-2.015,1.763-2.015a4.518,4.518,0,0,1,.907.1l-.05.4a2.873,2.873,0,0,0-.655-.05c-1.259,0-1.411.453-1.411,1.562,0,1.058.1,1.662,1.36,1.662a3.4,3.4,0,0,0,.705-.1Z" transform="translate(-65.799 -33.346)" fill="#fff"/>
      <path id="Path_28" data-name="Path 28" d="M139.2,69.266c0-1.511.453-2.065,1.763-2.065s1.763.6,1.763,2.065c0,1.511-.453,2.065-1.763,2.065-1.259,0-1.763-.554-1.763-2.065m3.023,0c0-1.209-.3-1.612-1.209-1.612s-1.209.353-1.209,1.612.3,1.612,1.209,1.612,1.209-.4,1.209-1.612" transform="translate(-69.074 -33.346)" fill="#fff"/>
      <path id="Path_29" data-name="Path 29" d="M148.954,71.231H148.4V67.453a4.454,4.454,0,0,1,1.662-.353,1.475,1.475,0,0,1,1.058.3,3.518,3.518,0,0,1,1.511-.3c1.209,0,1.411.655,1.411,1.461v2.62h-.554V68.662c0-.756-.2-1.108-1.008-1.108a2.928,2.928,0,0,0-1.058.252,3.049,3.049,0,0,1,.1.756v2.62h-.554V68.662c0-.756-.2-1.108-1.008-1.108a3.252,3.252,0,0,0-.957.2v3.476Z" transform="translate(-73.639 -33.297)" fill="#fff"/>
      <path id="Path_30" data-name="Path 30" d="M161.7,69.266c0-1.461.453-2.065,1.763-2.065,1.36,0,1.763.705,1.763,1.814v.4c-.453.1-1.411.151-2.015.2l-.957.05c.05.806.3,1.259,1.36,1.259a11.586,11.586,0,0,0,1.411-.1l.05.453a11.879,11.879,0,0,1-1.713.151c-1.31-.1-1.662-1.008-1.662-2.166m1.612-.151a13.327,13.327,0,0,0,1.36-.1v-.3c0-.705-.3-1.108-1.209-1.108-1.008,0-1.209.5-1.209,1.562Z" transform="translate(-80.239 -33.346)" fill="#fff"/>
      <path id="Path_31" data-name="Path 31" d="M170.9,68.108c0,.554.4.6,1.008.756.806.252,1.259.453,1.259,1.209,0,.907-.655,1.159-1.562,1.159a5.808,5.808,0,0,1-1.31-.151l.05-.453a7.516,7.516,0,0,0,1.058.1c.453,0,1.159,0,1.159-.655,0-.5-.353-.6-1.008-.806s-1.259-.353-1.259-1.159c0-.856.6-1.108,1.411-1.108a5.2,5.2,0,0,1,1.31.151l-.05.4a6.2,6.2,0,0,0-1.008-.1c-.4.05-1.058.1-1.058.655" transform="translate(-84.507 -33.247)" fill="#fff"/>
      <path id="Path_32" data-name="Path 32" d="M182,64.4c0-.3.05-.4.353-.4.252,0,.353.1.353.4s-.05.4-.353.4c-.252,0-.353-.1-.353-.4m.05,1.209h.554v4.03h-.554Z" transform="translate(-90.313 -31.758)" fill="#fff"/>
      <path id="Path_33" data-name="Path 33" d="M186.054,71.231H185.5V67.453a4.454,4.454,0,0,1,1.662-.353,1.475,1.475,0,0,1,1.058.3,3.518,3.518,0,0,1,1.511-.3c1.209,0,1.411.655,1.411,1.461v2.62h-.554V68.662c0-.756-.2-1.108-1.008-1.108a2.928,2.928,0,0,0-1.058.252,3.049,3.049,0,0,1,.1.756v2.62h-.554V68.662c0-.756-.2-1.108-1.008-1.108a3.252,3.252,0,0,0-.957.2v3.476Z" transform="translate(-92.049 -33.297)" fill="#fff"/>
      <path id="Path_34" data-name="Path 34" d="M199.654,72.692H199.1V67.4a3.131,3.131,0,0,1,1.511-.3c1.31,0,1.814.5,1.814,2.065s-.5,2.065-1.713,2.065a3.929,3.929,0,0,1-1.108-.151v1.612Zm.957-1.864c1.108,0,1.31-.5,1.31-1.612s-.252-1.612-1.259-1.612a2.044,2.044,0,0,0-.957.2v2.922c.2,0,.6.1.907.1" transform="translate(-98.798 -33.297)" fill="#fff"/>
      <path id="Path_35" data-name="Path 35" d="M207.9,71.281V67.5a3.131,3.131,0,0,1,1.511-.3h.353l-.05.453h-.353a2.044,2.044,0,0,0-.957.2v3.476h-.5Z" transform="translate(-103.165 -33.346)" fill="#fff"/>
      <path id="Path_36" data-name="Path 36" d="M212.9,69.266c0-1.511.453-2.065,1.763-2.065s1.763.6,1.763,2.065c0,1.511-.453,2.065-1.763,2.065s-1.763-.554-1.763-2.065m2.972,0c0-1.209-.3-1.612-1.209-1.612s-1.209.353-1.209,1.612.3,1.612,1.209,1.612,1.209-.4,1.209-1.612" transform="translate(-105.646 -33.346)" fill="#fff"/>
      <path id="Path_37" data-name="Path 37" d="M223.417,70.928c-.1.252-.252.4-.453.4s-.353-.151-.453-.4L221.1,67.2h.6l1.31,3.426,1.31-3.426h.554Z" transform="translate(-109.715 -33.346)" fill="#fff"/>
      <path id="Path_38" data-name="Path 38" d="M229.8,69.266c0-1.461.453-2.065,1.763-2.065,1.36,0,1.763.705,1.763,1.814v.4c-.453.1-1.411.151-2.015.2l-.957.05c.05.806.3,1.259,1.36,1.259a11.587,11.587,0,0,0,1.411-.1l.05.453a11.879,11.879,0,0,1-1.713.151c-1.31-.1-1.662-1.008-1.662-2.166m1.612-.151a13.328,13.328,0,0,0,1.36-.1v-.3c0-.705-.3-1.108-1.209-1.108-1.008,0-1.209.5-1.209,1.562Z" transform="translate(-114.032 -33.346)" fill="#fff"/>
      <path id="Path_39" data-name="Path 39" d="M239.354,71.231H238.8V67.453a4.454,4.454,0,0,1,1.662-.353,1.475,1.475,0,0,1,1.058.3,3.518,3.518,0,0,1,1.511-.3c1.209,0,1.411.655,1.411,1.461v2.62h-.554V68.662c0-.756-.2-1.108-1.008-1.108a2.928,2.928,0,0,0-1.058.252,3.049,3.049,0,0,1,.1.756v2.62h-.554V68.662c0-.756-.2-1.108-1.008-1.108a3.252,3.252,0,0,0-.957.2v3.476Z" transform="translate(-118.498 -33.297)" fill="#fff"/>
      <path id="Path_40" data-name="Path 40" d="M252.1,69.266c0-1.461.453-2.065,1.763-2.065,1.36,0,1.763.705,1.763,1.814v.4c-.453.1-1.411.151-2.015.2l-.957.05c.05.806.3,1.259,1.36,1.259a11.587,11.587,0,0,0,1.411-.1l.05.453a11.879,11.879,0,0,1-1.713.151c-1.31-.1-1.662-1.008-1.662-2.166m1.612-.151a13.327,13.327,0,0,0,1.36-.1v-.3c0-.705-.3-1.108-1.209-1.108-1.008,0-1.209.5-1.209,1.562Z" transform="translate(-125.098 -33.346)" fill="#fff"/>
      <path id="Path_41" data-name="Path 41" d="M261.654,71.231H261.1V67.453a4.641,4.641,0,0,1,1.814-.353c1.36,0,1.511.655,1.511,1.461v2.62h-.554V68.662c0-.756-.151-1.108-1.159-1.108a3.622,3.622,0,0,0-1.108.2v3.476Z" transform="translate(-129.564 -33.297)" fill="#fff"/>
      <path id="Path_42" data-name="Path 42" d="M270.61,65v1.159h.907v.453h-.907v2.519c0,.554.2.705.705.705h.2l.05.4c-.151,0-.3.05-.453.05-.756,0-1.058-.3-1.058-1.058v-2.62H269.3v-.453h.756V65.1Z" transform="translate(-133.633 -32.254)" fill="#fff"/>
    </g>
    <path id="Path_833" data-name="Path 833" d="M5.527-12.835c4.908,0,4.932,2.526,4.932,5.845s-.024,5.845-4.932,5.845a18.892,18.892,0,0,1-2.3-.18V-12.661A20.15,20.15,0,0,1,5.527-12.835ZM1.692-.186a27.205,27.205,0,0,0,4.248.33c5.161,0,6.067-2.382,6.067-7.135s-.906-7.135-6.067-7.135a28.026,28.026,0,0,0-4.248.318Zm17.672.33c3.45,0,4.692-1.566,4.692-5.491,0-3.942-1.242-5.485-4.692-5.485s-4.692,1.488-4.692,5.485S15.92.144,19.364.144Zm0-1.23c-2.406,0-3.222-.876-3.222-4.26S16.958-9.6,19.364-9.6c2.46,0,3.228,1.008,3.228,4.254S21.806-1.086,19.364-1.086Zm14.119-.258a9.915,9.915,0,0,1-1.8.228c-3.4,0-3.648-1.566-3.648-4.344,0-2.958.324-4.128,3.666-4.128a11.323,11.323,0,0,1,1.782.18l.12-1.116a9.079,9.079,0,0,0-2.394-.306c-3.858,0-4.65,1.872-4.65,5.371,0,3.072.666,5.6,4.266,5.6a13.124,13.124,0,0,0,2.8-.312Zm2.484-2.4c0,2.166.366,3.888,4,3.888a12.316,12.316,0,0,0,4.8-.894c.036-.588.054-1.2.054-1.824v-8.113H43.372v7.411c0,.5-.012,1.17-.042,1.674a8.563,8.563,0,0,1-2.868.522c-2.676,0-3.036-.912-3.036-2.928v-6.679H35.968ZM49.451-7.411c0-.5.012-1.17.042-1.674A7.546,7.546,0,0,1,52-9.6c2.184,0,2.682.888,2.682,2.916V0h1.458V-6.943a6.069,6.069,0,0,0-.258-1.95A6.445,6.445,0,0,1,58.686-9.6c2.178,0,2.682.888,2.682,2.916V0H62.82V-6.943c0-2.112-.474-3.888-3.678-3.888a9.135,9.135,0,0,0-3.924.864,3.754,3.754,0,0,0-2.766-.864,12.226,12.226,0,0,0-4.392.894c-.042.588-.06,1.2-.06,1.824V0h1.452ZM70.087.144A26.65,26.65,0,0,0,74.563-.21l-.132-1.176a27.594,27.594,0,0,1-3.774.3c-2.694,0-3.354-1.122-3.534-3.312l2.532-.1c1.494-.06,4.026-.3,5.251-.5.018-.318.03-.714.03-1.014,0-2.922-.978-4.812-4.6-4.812-3.51,0-4.674,1.608-4.674,5.485C65.665-2.178,66.589.144,70.087.144Zm-3-5.647c0-2.76.564-4.14,3.252-4.14,2.334,0,3.126,1.152,3.126,2.964,0,.222-.006.534-.024.75-.984.126-2.592.252-3.528.294ZM79.064-7.411c0-.5.012-1.17.042-1.674A8.687,8.687,0,0,1,82-9.607c2.682,0,3.042.912,3.042,2.928V0H86.5V-6.943c0-2.166-.372-3.888-4.014-3.888a12.4,12.4,0,0,0-4.824.894c-.036.588-.054,1.2-.054,1.824V0h1.452Zm11.479-6.061v2.784H88.587v1.152h1.956v6.883c0,1.944.84,2.8,2.814,2.8A7.645,7.645,0,0,0,94.515.03L94.4-1.08c-.192.018-.384.03-.582.03-1.3,0-1.818-.276-1.818-1.8V-9.535h2.382v-1.152H92v-3.018Zm6.475,4.164a25.259,25.259,0,0,1,3.57-.306c2.316,0,2.91.72,2.91,2.466v.474a41.939,41.939,0,0,0-4.566.312c-1.908.288-2.688,1.458-2.688,3.312,0,2.316,1.3,3.192,4.164,3.192a9.993,9.993,0,0,0,4.464-.858c.036-.588.06-1.2.06-1.824V-7.585c0-2.664-1.8-3.246-4.074-3.246a24.185,24.185,0,0,0-3.972.372Zm.672,6.223c0-1.476.534-1.962,1.752-2.208a26.191,26.191,0,0,1,4.056-.288V-3.2c0,.5-.012,1.17-.042,1.68a8.089,8.089,0,0,1-2.892.48C98.554-1.044,97.69-1.44,97.69-3.084ZM109-13.471v2.784h-1.956v1.152H109v6.883c0,1.944.84,2.8,2.814,2.8A7.645,7.645,0,0,0,112.973.03l-.12-1.11c-.192.018-.384.03-.582.03-1.3,0-1.818-.276-1.818-1.8V-9.535h2.382v-1.152h-2.382v-3.018Zm6.979.636c.7,0,.882-.27.882-1.056s-.2-1.068-.882-1.068-.876.282-.876,1.068S115.284-12.835,115.98-12.835ZM115.254,0h1.458V-10.687h-1.458Zm8.923.144c3.45,0,4.692-1.566,4.692-5.491,0-3.942-1.242-5.485-4.692-5.485s-4.692,1.488-4.692,5.485S120.732.144,124.176.144Zm0-1.23c-2.406,0-3.222-.876-3.222-4.26S121.77-9.6,124.176-9.6c2.46,0,3.228,1.008,3.228,4.254S126.619-1.086,124.176-1.086Zm8.971-6.325c0-.5.012-1.17.042-1.674a8.687,8.687,0,0,1,2.9-.522c2.682,0,3.042.912,3.042,2.928V0h1.458V-6.943c0-2.166-.372-3.888-4.014-3.888a12.4,12.4,0,0,0-4.824.894c-.036.588-.054,1.2-.054,1.824V0h1.452Z" transform="translate(269.375 50)" fill="#fff"/>
    <line id="Line_296" data-name="Line 296" y2="24" transform="translate(260.375 31.5)" fill="none" stroke="#fff" stroke-width="1"/>
  </g>
</svg>
