<svg xmlns="http://www.w3.org/2000/svg" viewBox="0 0 160.9 50"><defs><style>.cls-1{fill:#384655;}.cls-2{font-size:23.4px;font-family:Flexo-Demi, Flexo;letter-spacing:0em;}.cls-2,.cls-4{fill:#fff;}.cls-3{fill:#00aeff;}</style></defs><title>Asset 6</title><g id="Layer_2" data-name="Layer 2"><g id="Layer_1-2" data-name="Layer 1"><rect class="cls-1" width="160.9" height="50"/><text class="cls-2" transform="translate(78.99 33.78)">Docs</text><rect class="cls-3" width="49.73" height="50"/><path class="cls-4" d="M25,41.22a7.83,7.83,0,0,1-2.64-2.11,9.08,9.08,0,0,1-1.76-3.18,13.42,13.42,0,0,1-.71-3.88c0-8.11,6.7-12.34,6-20.45a3.8,3.8,0,0,0-.18-1.41c-.35-.35-.53-.71-.71-.88a7.87,7.87,0,0,1,2.65,2.11,9.34,9.34,0,0,1,1.76,3.18,13.83,13.83,0,0,1,.71,3.88c0,6.87-6.35,12-6.35,19.39a6.52,6.52,0,0,0,.35,1.94A2.42,2.42,0,0,0,25,41.22"/><path class="cls-4" d="M31,40.87a6.59,6.59,0,0,1-1.76-1.41,6.48,6.48,0,0,1-1.59-4.76c0-5.47,4.94-8.46,4.23-15.34a15.14,15.14,0,0,1,2.29,3.53c0,.7.18,1.58.18,2.46,0,4.59-4.23,8.12-4.23,13a2.74,2.74,0,0,0,.17,1.24A2.87,2.87,0,0,0,31,40.87"/><path class="cls-4" d="M18.51,31.7a6.75,6.75,0,0,1-1.76-1.41,6,6,0,0,1-1.24-2.11,12.5,12.5,0,0,1-.35-2.65c0-5.47,4.94-8.46,4.23-15.34a15.14,15.14,0,0,1,2.29,3.53A11.69,11.69,0,0,1,22,16.36C22,21,17.8,24.47,17.8,29.41A2.54,2.54,0,0,0,18,30.64l.53,1.06"/></g></g></svg>