<svg xmlns="http://www.w3.org/2000/svg" viewBox="0 0 160.9 50"><defs><style>.cls-1{fill:#384655;}.cls-2{fill:#fff;}.cls-3{fill:#00aeff;}</style></defs><title>Asset 7</title><g id="Layer_2" data-name="Layer 2"><g id="Layer_1-2" data-name="Layer 1"><rect class="cls-1" width="160.9" height="50"/><path class="cls-2" d="M80.84,17.68a32.23,32.23,0,0,1,5.22-.43c6.1,0,7.19,2.79,7.19,8.35s-1.09,8.34-7.19,8.34a32.33,32.33,0,0,1-5.22-.42ZM83.7,31.51a13.86,13.86,0,0,0,1.9.14c4.75,0,4.78-2.62,4.78-6s0-6.05-4.78-6.05a13.86,13.86,0,0,0-1.9.14Z"/><path class="cls-2" d="M101.37,33.94c-4.09,0-5.57-1.74-5.57-6.42s1.48-6.41,5.57-6.41,5.56,1.81,5.56,6.41S105.46,33.94,101.37,33.94Zm0-2.11c2.26,0,2.89-1,2.89-4.31s-.63-4.29-2.89-4.29-2.88.85-2.88,4.29S99.11,31.83,101.37,31.83Z"/><path class="cls-2" d="M117.84,23.51a12.75,12.75,0,0,0-2.17-.26c-3.29,0-3.6.91-3.6,4.15,0,3.07.13,4.35,3.62,4.35a11.29,11.29,0,0,0,2.15-.27l.23,2a16.59,16.59,0,0,1-3.88.43c-4.17,0-4.83-3.15-4.83-6.54,0-4.09.94-6.29,5.52-6.29a11.22,11.22,0,0,1,3.17.43Z"/><path class="cls-2" d="M126.69,30.36c0-1.43-1.28-1.55-2.45-1.91-2-.61-3.91-1.12-3.91-3.81s1.93-3.53,4.41-3.53a18.43,18.43,0,0,1,4.44.48l-.25,2a17.24,17.24,0,0,0-3.13-.34c-1,0-2.81,0-2.81,1.28s1.51,1.54,2.55,1.9c2.14.72,3.86,1.12,3.86,3.87s-2.13,3.68-4.87,3.68a19,19,0,0,1-4.32-.49l.26-2a20.55,20.55,0,0,0,3.32.35C124.78,31.8,126.69,31.83,126.69,30.36Z"/><rect class="cls-3" width="49.73" height="50"/><path class="cls-2" d="M25,41.22a7.83,7.83,0,0,1-2.64-2.11,9.08,9.08,0,0,1-1.76-3.18,13.42,13.42,0,0,1-.71-3.88c0-8.11,6.7-12.34,6-20.45a3.8,3.8,0,0,0-.18-1.41c-.35-.35-.53-.71-.71-.88a7.87,7.87,0,0,1,2.65,2.11,9.34,9.34,0,0,1,1.76,3.18,13.83,13.83,0,0,1,.71,3.88c0,6.87-6.35,12-6.35,19.39a6.52,6.52,0,0,0,.35,1.94A2.42,2.42,0,0,0,25,41.22"/><path class="cls-2" d="M31,40.87a6.59,6.59,0,0,1-1.76-1.41,6.48,6.48,0,0,1-1.59-4.76c0-5.47,4.94-8.46,4.23-15.34a15.14,15.14,0,0,1,2.29,3.53c0,.7.18,1.58.18,2.46,0,4.59-4.23,8.12-4.23,13a2.74,2.74,0,0,0,.17,1.24A2.87,2.87,0,0,0,31,40.87"/><path class="cls-2" d="M18.51,31.7a6.75,6.75,0,0,1-1.76-1.41,6,6,0,0,1-1.24-2.11,12.5,12.5,0,0,1-.35-2.65c0-5.47,4.94-8.46,4.23-15.34a15.14,15.14,0,0,1,2.29,3.53A11.69,11.69,0,0,1,22,16.36C22,21,17.8,24.47,17.8,29.41A2.54,2.54,0,0,0,18,30.64l.53,1.06"/></g></g></svg>